<?xml version="1.0" encoding="UTF-8"?>
<!DOCTYPE svg PUBLIC "-//W3C//DTD SVG 1.1//EN"
  "http://www.w3.org/Graphics/SVG/1.1/DTD/svg11.dtd">
<!-- Created with Inkpad (http://www.taptrix.com/) --><svg xmlns:inkpad="http://taptrix.com/inkpad/svg_extensions" height="1984pt" xmlns:xlink="http://www.w3.org/1999/xlink" xmlns="http://www.w3.org/2000/svg" width="1800pt" version="1.1" viewBox="0,0,1800,1984">
<defs/>
<g id="Vrstva_x0020_3" inkpad:layerName="Vrstva_x0020_3">
<path d="M1271.47+1224.57C1257.53+1208.35+1243.57+1192.11+1228.58+1177.01C1221.06+1169.46+1213.29+1162.18+1204.62+1155.04C1195.94+1147.9+1186.38+1140.9+1175.28+1133.89C1164.55+1127.1+1152.4+1120.31+1139.52+1113.53C1126.59+1106.72+1113+1099.93+1099.38+1093.16L1096.83+1091.89C1082.82+1077.24+1068.84+1063.14+1055.58+1050.1C1035.81+1030.63+1017.68+1013.5+1001.14+998.453C982.612+981.596+966.067+967.359+951.456+955.391C944.263+949.503+937.613+944.206+931.451+939.325C913.699+925.224+900.079+914.406+891.663+903.533C888.386+899.306+885.892+895.072+884.11+890.854C882.264+886.484+881.185+882.146+880.809+877.879C880.553+875.051+880.609+872.247+880.945+869.475C881.297+866.646+881.936+863.858+882.863+861.134C883.638+858.857+884.59+856.636+885.725+854.471C886.867+852.29+888.194+850.164+889.705+848.087C892.59+844.125+896.099+840.426+900.127+837.102C904.132+833.81+908.655+830.862+913.611+828.394C921.228+824.591+929.892+821.858+939.875+819.925C949.898+817.976+961.255+816.833+974.211+816.21C980.59+815.914+987.319+815.723+994.337+815.683C1001.09+815.651+1008.13+815.739+1015.36+815.986C1023.53+816.258+1032.01+816.729+1040.65+817.408C1048.85+818.064+1057.14+818.902+1065.42+819.949C1078.19+821.563+1091.05+823.696+1103.96+826.285C1117.22+828.945+1130.51+832.085+1143.75+835.656C1147.17+836.583+1150.6+837.533+1154.03+838.516C1157.59+839.539+1161.02+840.553+1164.33+841.552C1180.72+846.529+1197.05+852.154+1212.67+857.922C1228.27+863.698+1243.14+869.626+1256.65+875.227L1264.39+878.478L1271.84+881.658C1281.86+885.964+1290.88+890.023+1298.68+893.722C1306.48+897.421+1313.12+900.776+1318.36+903.685C1324.83+907.28+1329.2+910.196+1332.43+913.503C1335.63+916.787+1337.76+920.486+1339.8+925.679C1343.05+933.98+1346.06+946.052+1348.72+956.669L1350.79+964.89C1352.37+970.978+1353.79+975.916+1356.04+980.469C1358.31+985.039+1361.38+989.194+1366.26+993.644C1372.7+999.524+1382.29+1005.94+1392.8+1012.97C1397.98+1016.45+1403.4+1020.07+1408.81+1023.88C1422.16+1033.29+1435.24+1043.69+1447.21+1053.22L1454.76+1059.21L1463.85+1066.36C1473.91+1074.25+1482.53+1081.01+1488.63+1086.63C1492.44+1090.14+1495.28+1093.21+1497.6+1096.03C1499.93+1098.88+1501.77+1101.5+1503.58+1104.11L1503.89+1104.57L1504.67+1104.02L1505.58+1104.23L1505.66+1103.91C1507.23+1096.87+1508.79+1089.8+1509.87+1081.83C1510.96+1073.85+1511.57+1064.94+1511.21+1054.25C1510.83+1042.86+1509.37+1029.44+1506.77+1015.84C1504.46+1003.72+1501.25+991.431+1497.12+980.31C1492.72+968.486+1487.28+957.972+1481.63+948.784C1475.99+939.596+1470.14+931.703+1464.92+925.128C1460.05+919.008+1455.72+914.007+1450.85+909.141L1448.86+907.192L1445.6+900.401L1443+895.12C1441.72+892.54+1440.37+889.879+1438.91+887.099C1437.44+884.319+1435.92+881.482+1434.31+878.614L1431.25+873.277L1427.9+867.685C1423.21+860.007+1417.63+851.531+1411.07+842.894C1404.53+834.274+1397.03+825.518+1388.52+817.329C1371.87+801.286+1351.33+787.369+1333.75+775.457L1332.61+774.69C1323.71+768.65+1315.61+763.129+1308.19+757.936C1300.77+752.743+1293.96+747.838+1287.6+742.988C1281.28+738.179+1275.42+733.425+1269.76+728.696C1264.03+723.91+1258.67+719.268+1253.3+714.627L1252.68+715.338L1251.92+715.889C1256.82+722.552+1261.71+729.215+1266.5+736.006C1271.27+742.797+1275.97+749.755+1280.5+757.026C1281.92+759.326+1283.26+761.532+1284.53+763.641L1288.47+770.36L1293.7+779.483C1297.88+786.794+1301.95+793.92+1305.98+800.343C1310.05+806.839+1314.04+812.607+1318.03+818.024C1321.33+822.514+1324.66+826.82+1327.99+831.07C1325.11+830.159+1322.32+829.376+1319.56+828.689C1313.34+827.131+1307.35+826.101+1301.14+825.022C1293.29+823.664+1285.06+822.242+1275.52+819.622L1274.56+818.535C1271.32+814.836+1268.06+811.129+1264.64+807.438C1261.2+803.707+1257.54+799.928+1253.51+796.053C1249.24+791.955+1244.54+787.768+1239.06+783.374C1233.57+778.972+1227.3+774.378+1219.89+769.481C1212.72+764.735+1204.44+759.678+1195.83+754.717C1186.74+749.468+1177.28+744.339+1168.39+739.793C1153.43+732.139+1140.05+726.123+1128.35+720.866L1122.98+718.445C1116.51+715.537+1110.65+712.829+1105.07+710.232L1088.87+702.643L1088.47+703.497L1087.88+704.24L1088.28+704.56C1099.17+713.141+1110.06+721.721+1120.97+730.453C1126.66+734.999+1132.51+739.713+1138.2+744.45C1143.82+749.132+1149.22+753.782+1154+758.216C1158.05+761.979+1161.66+765.582+1165+769.097C1168.39+772.645+1171.46+776.048+1174.45+779.427L1174.95+779.987L1173.56+779.435C1161.72+774.77+1149.86+770.719+1137.45+766.485L1129.96+763.912C1115.82+759.055+1100.67+753.87+1078.5+749.628L1075.33+749.044L1072.35+748.517L1071.36+747.838C1064.6+743.108+1057.82+738.395+1050.91+733.921C1043.93+729.415+1036.77+725.116+1029.22+721.234C1021.46+717.231+1013.3+713.668+1004.79+710.488C996.271+707.308+987.439+704.512+978.344+702.075C960.216+697.218+940.954+693.711+921.7+690.211L919.046+688.917L918.215+690.603L920.98+691.953C925.168+694.006+929.372+696.075+933.649+698.296C937.877+700.486+942.113+702.77+946.357+705.239C951.248+708.091+956.164+711.183+960.832+714.403C965.164+717.391+969.296+720.507+973.012+723.638C976.529+726.594+979.654+729.566+982.556+732.538C985.505+735.534+988.223+738.522+990.9+741.51L991.084+741.702C975.61+741.67+959.849+742.365+944.599+743.771C929.013+745.209+913.979+747.375+900.383+750.267C894.061+751.601+888.034+753.103+882.32+754.725C876.693+756.331+871.322+758.064+866.214+759.926C855.8+757.848+845.362+755.803+832.014+756.746C825.3+757.217+817.859+758.456+810.074+760.133C802.313+761.811+794.168+763.952+786.032+766.245C776.569+768.914+767.113+771.798+757.666+774.754C751.08+776.823+744.19+779.028+737.301+781.241L737.588+782.136L737.62+783.079C741.265+782.975+744.918+782.871+748.802+782.815C752.71+782.767+756.883+782.767+761.614+782.871C766.794+782.983+772.668+783.23+778.391+783.686C783.003+784.053+787.487+784.549+791.395+785.236C795.647+785.987+799.244+786.945+802.481+788.016C805.294+788.943+807.884+789.973+810.434+791.02C807.157+793.632+804.055+796.277+801.13+798.889C797.837+801.837+794.768+804.73+791.931+807.526C781.484+817.76+773.659+826.788+765.874+835.792C750.832+830.103+735.902+824.343+729.284+813.933C725.983+808.732+724.712+802.309+724.624+795.062C724.528+787.72+725.631+779.539+727.054+770.935L727.134+770.48C728.565+761.907+730.291+752.927+732.921+743.979C735.534+735.055+739.051+726.147+744.038+717.694L744.486+716.935C749.681+708.323+756.451+700.174+764.723+692.624C772.908+685.162+782.579+678.291+793.665+672.132C804.855+665.916+817.507+660.427+831.254+655.394C845.026+650.353+859.884+645.791+875.454+641.421C891.064+637.051+907.385+632.896+924.729+629.053C942.097+625.203+960.504+621.671+980.238+618.564C1000.91+615.296+1023.06+612.492+1045.7+610.462C1066.33+608.625+1087.38+607.427+1108.1+607.123C1129.8+606.811+1151.16+607.49+1172.22+608.992C1193.27+610.502+1214.02+612.843+1234.48+615.855L1237.46+616.295C1257.44+619.307+1277.13+622.926+1295.96+626.785C1314.76+630.635+1332.81+634.75+1349.5+638.721C1366.7+642.811+1382.37+646.734+1395.61+650.241C1408.72+653.724+1419.52+656.816+1427.06+659.301C1441.47+664.038+1443.85+666.443+1445.63+668.217L1446.32+668.912C1447.97+670.526+1449.66+672.18+1453.57+679.642C1455.88+684.036+1458.95+690.427+1462.01+697.25C1464.71+703.274+1467.4+709.657+1469.55+715.314C1471.84+721.33+1473.49+726.491+1474.7+731.532C1475.9+736.581+1476.68+741.534+1477.2+747.111L1477.58+751.793C1478.39+762.123+1479.3+773.859+1486.1+783.957C1493.06+794.296+1506.1+802.724+1522.01+813.014L1527.99+816.881L1539.07+824.167C1554.87+834.601+1572.15+846.01+1588.62+854.583C1596.66+858.769+1604.56+862.292+1611.99+865.608C1623.29+870.641+1633.49+875.203+1641.58+880.931C1648.24+885.637+1653.54+891.173+1658.14+897.125C1662.75+903.101+1666.69+909.517+1670.62+915.932L1670.68+916.02L1671.48+915.525L1672.43+915.509L1672.43+915.421C1672.22+903.764+1672.01+892.1+1671.36+880.564C1670.71+868.963+1669.61+857.443+1667.63+846.098C1665.65+834.705+1662.77+823.472+1658.79+812.215C1654.83+800.967+1649.75+789.686+1643.38+778.189C1638.76+769.88+1633.47+761.452+1627.72+753.111C1621.57+744.187+1614.9+735.367+1608.02+726.882L1603.65+721.577L1599.13+716.272L1596.85+713.636L1594.55+711.031C1592.1+708.267+1589.65+705.583+1587.24+702.994C1584.8+700.382+1582.35+697.817+1579.86+695.293L1567.27+681.048L1554.96+667.026L1540.62+650.537C1529.06+637.227+1517.9+624.364+1506.47+611.741C1499.36+603.895+1492.23+596.242+1485.3+588.931C1478.36+581.613+1471.53+574.559+1465.1+567.984L1459.93+562.727C1452.91+555.6+1446.48+549.169+1441.08+543.808C1435.67+538.447+1431.3+534.157+1428.39+531.297L1422.57+525.576L1421.24+526.919L1424.03+529.643L1424.18+530.003C1427.37+537.457+1430.55+544.911+1433.77+552.309C1436.95+559.611+1440.07+566.681+1443.1+573.248L1444.91+577.115L1446.68+580.87C1450.28+588.388+1453.72+595.099+1457.08+601.403C1459.98+606.827+1462.81+611.948+1465.63+617.022L1457.91+613.626C1448.3+609.488+1437.93+605.325+1426.92+601.211L1425.57+600.228C1421.51+597.288+1417.38+594.324+1412.84+591.168C1408.38+588.077+1403.63+584.897+1398.33+581.549C1394.79+579.32+1390.99+576.987+1386.84+574.559C1382.69+572.13+1378.23+569.605+1373.37+566.953C1360.9+560.162+1345.77+552.548+1329.81+544.958C1313.57+537.241+1296.47+529.539+1280.43+522.756C1264.54+516.037+1249.72+510.237+1235.54+504.972C1221.33+499.691+1207.77+494.962+1194.41+490.384C1167.64+481.228+1141.63+472.696+1115.62+464.171L1115.33+465.066L1114.95+465.921L1123.67+469.732L1132.37+473.566C1136.72+475.492+1141.13+477.481+1145.69+479.574C1150.07+481.588+1154.45+483.649+1158.83+485.774C1165.99+489.249+1173.05+492.86+1180.5+496.887C1187.95+500.914+1195.77+505.348+1204.44+510.493C1214.86+516.676+1226.4+523.779+1237.35+530.522C1244.91+535.188+1252.19+539.678+1258.33+543.385L1264.89+547.307L1270.88+550.847C1275.53+553.555+1279.76+555.976+1283.79+558.245L1289.72+561.552C1283.17+560.138+1276.59+558.78+1270.01+557.47C1245.84+552.66+1221.53+548.546+1197.71+545.102C1190.81+544.104+1183.87+543.145+1176.88+542.25C1169.92+541.355+1163.09+540.524+1156.38+539.781C1152.94+539.262+1149.58+538.711+1146.34+538.144C1143.09+537.568+1139.95+536.977+1136.97+536.362L1131.44+535.148L1126.13+533.861C1121.72+532.759+1117.38+531.568+1112.89+530.362C1104.8+528.165+1096.29+525.84+1085.89+523.579C1076.01+521.43+1064.29+519.297+1052.57+517.427C1039.79+515.382+1027.03+513.641+1016.66+512.506C1006.71+511.412+998.909+510.86+992.187+510.589C985.393+510.317+979.806+510.317+974.211+510.317L974.211+511.26L974.171+512.202L974.243+512.202C988.286+512.929+1002.32+513.657+1013.58+516.333C1015.75+516.852+1017.8+517.435+1019.76+518.067C1021.73+518.714+1023.61+519.401+1025.41+520.12C1030.01+521.957+1034.13+524.011+1037.94+525.912L1040.7+527.278C1044.09+528.94+1047.21+530.37+1050.16+531.672C1052.32+532.615+1054.4+533.518+1056.46+534.373C1042.51+534.62+1028.9+535.363+1015.31+536.57C1000.26+537.904+985.241+539.805+969.807+542.226C961.759+540.556+953.702+538.887+945.454+537.353C937.229+535.827+928.917+534.469+920.429+533.422C911.901+532.375+903.141+531.64+893.973+531.273C884.837+530.897+875.31+530.897+865.239+531.313C845.106+532.144+822.83+534.644+800.555+537.145L800.659+538.08L800.627+539.022C807.988+539.334+815.349+539.646+822.502+540.061C829.592+540.476+836.418+540.996+842.7+541.723C848.982+542.45+854.697+543.385+860.212+544.431C865.767+545.486+871.058+546.668+876.445+547.867L892.079+551.366L905.69+554.434C892.302+557.358+878.851+560.514+865.663+563.797C850.813+567.512+836.322+571.371+822.694+575.246C800.579+572.945+778.439+570.652+751.552+571.986C739.363+572.601+726.199+573.952+713.267+575.685C697.585+577.794+682.255+580.455+669.371+583.019C645.817+587.709+630.399+592.087+614.981+596.457L615.229+597.36L615.173+598.303C622.422+598.718+629.671+599.134+641.277+600.076C647.727+600.596+655.448+601.275+663.552+602.09C670.074+602.737+676.956+603.496+683.806+604.335C691.039+605.222+698.105+606.204+705.082+607.219C712.044+608.241+718.582+609.248+725.056+610.255L721.427+611.964C706.297+619.163+691.638+627.136+677.971+636.244C664.288+645.36+651.579+655.594+640.405+667.29C618.498+690.211+602.432+718.709+586.487+747.311C583.618+740.232+580.772+733.17+578.262+726.331C575.545+718.917+573.211+711.774+571.661+705.167C570.118+698.568+569.343+692.496+569.295+685.618C569.247+678.699+569.918+670.933+571.269+660.987C572.779+649.866+575.129+635.996+578.438+621.791C581.044+610.598+584.241+599.214+588.077+588.796C592.425+576.987+597.613+566.434+603.999+555.64C610.401+544.839+618.034+533.781+627.289+520.991C636.545+508.208+647.407+493.707+659.492+479.766C671.577+465.817+684.901+452.395+699.096+441.729C713.275+431.079+728.341+423.162+745.061+416.795C761.822+410.419+780.253+405.586+801.114+401.136C822.415+396.574+846.257+392.395+871.346+388.88C895.5+385.493+920.844+382.696+946.253+380.763C972.173+378.782+998.125+377.695+1024.17+377.256C1050.25+376.808+1076.46+377.016+1102.88+377.639C1128.85+378.254+1155.05+379.269+1178.82+380.515C1203.35+381.802+1225.26+383.336+1241.63+384.917C1257.7+386.467+1268.43+388.073+1276.9+390.398C1285.33+392.707+1291.55+395.743+1298.66+400.169C1305.15+404.212+1312.36+409.397+1319.41+414.861C1327.95+421.476+1336.27+428.491+1342.87+434.403C1345.01+436.312+1347.11+438.262+1349.09+440.091C1357.58+447.913+1363.9+453.729+1375.52+459.713C1387.02+465.633+1403.68+471.665+1422.54+478.512L1436.19+483.481C1448.45+487.979+1461.17+492.813+1474.05+497.782C1486.85+502.719+1500.05+507.896+1513.15+513.057C1539.73+523.523+1564.62+533.398+1589.5+543.273L1589.83+543.401L1590.18+542.522L1591.09+542.25L1590.84+541.411C1588.55+533.845+1586.25+526.272+1583.67+518.594C1581.12+511.004+1578.33+503.446+1575.07+495.96C1572.05+489.01+1568.63+482.139+1565.11+475.644C1560.92+467.886+1556.58+460.64+1552.62+454.432C1548.99+448.744+1545.7+443.942+1542.61+439.668C1539.52+435.362+1536.66+431.607+1533.9+428.004C1531.13+424.376+1528.47+420.901+1525.38+417.266C1522.28+413.647+1518.76+409.868+1514.28+405.682C1509.62+401.319+1503.94+396.518+1497.34+391.469C1491.24+386.803+1484.36+381.913+1476.79+376.968C1465.31+369.466+1452.13+361.773+1440.43+354.934C1436.04+352.361+1431.86+349.916+1428.26+347.775C1424.92+345.786+1421.66+343.813+1418.58+341.951C1409.6+336.486+1402.11+331.949+1392.4+327.147C1383.15+322.577+1371.88+317.776+1359.47+312.495C1354.33+310.306+1349+308.029+1343.97+305.848L1330.4+299.904C1315.87+293.52+1300.58+286.793+1284.77+280.713C1268.07+274.29+1250.96+268.674+1235.31+263.536L1224.12+259.845C1214.91+256.786+1206.36+253.846+1198.53+251.057C1190.94+248.365+1184.15+245.824+1178.23+243.475C1166.25+238.738+1157.87+234.815+1149.51+230.876L1149.47+230.86L1149.06+231.707L1148.48+232.442C1159.13+240.927+1169.79+249.411+1181.94+258.871C1187.94+263.544+1194.27+268.442+1200.74+273.347C1207.27+278.301+1213.86+283.214+1220.25+287.864C1226.67+292.53+1233.08+297.059+1239.38+301.414C1245.63+305.752+1251.74+309.89+1257.64+313.829C1263.65+317.848+1269.31+321.587+1274.76+325.174L1287.06+333.203C1282.71+332.188+1278.34+331.142+1273.91+329.991C1268.05+328.465+1262.03+326.732+1255.71+324.598C1249.18+322.401+1242.3+319.765+1235.16+316.809C1228+313.861+1220.58+310.585+1212.98+307.102L1200.12+301.15C1188.81+295.885+1177.1+290.42+1164.92+285.395C1156.92+282.096+1148.77+278.996+1140.71+276.136C1131.87+272.996+1123.08+270.128+1114.73+267.579C1106.75+265.15+1099.22+263.025+1091.88+261.084C1084.57+259.142+1077.37+257.353+1070.08+255.595C1061.28+253.478+1053+251.553+1046.09+249.947L1033.62+247.023L1029.09+245.896L1027.65+245.561C1022.86+245.161+1022.18+245.377+1023.73+246.088C1023.32+246.543+1024.13+247.135+1027.3+247.422L1030.69+248.605C1033.45+249.595+1037.71+251.185+1042.69+253.11C1046.71+254.668+1051.33+256.498+1056.2+258.479C1061.58+260.676+1067.16+263.017+1072.82+265.598C1078.53+268.202+1084.42+271.078+1090.44+274.346C1097.93+278.413+1105.61+283.086+1113.04+287.584C1117.61+290.356+1122.08+293.065+1126.26+295.502C1133.93+299.952+1140.91+303.643+1146.94+306.822C1149.78+308.324+1152.42+309.714+1154.69+310.953C1158.23+312.878+1161.26+314.636+1164.02+316.306L1168.17+318.838C1157.67+316.929+1146.85+314.844+1133.47+311.456C1127.97+310.058+1122.11+308.46+1115.92+306.679C1109.62+304.865+1102.97+302.86+1095.96+300.647L1087.14+297.842L1077.96+294.83C1062.75+289.773+1046.07+283.909+1030.43+278.428L1012.22+272.053C1002.09+268.538+992.962+265.414+984.298+262.706C975.586+259.973+967.29+257.648+958.841+255.691C943.32+252.096+927.294+249.787+907.792+246.975L902.517+246.208C881.009+243.1+854.865+239.169+828.697+235.238L827.969+235.127L827.826+236.061L827.554+236.956L839.719+240.663C843.931+241.934+848.702+243.356+854.577+245.065L861.77+247.166C871.857+250.091+883.67+253.526+894.988+257.081C901.998+259.286+908.783+261.531+915.761+264.064C922.747+266.588+929.94+269.409+937.773+272.748C943.959+275.393+950.577+278.381+957.363+281.44C961.999+283.526+966.714+285.659+971.358+287.704C974.251+288.99+977.177+290.253+980.126+291.507C983.027+292.745+985.921+293.944+988.782+295.078C1005.79+301.861+1021.4+306.535+1029.22+308.876L1029.96+309.107C1021.45+308.78+1012.9+308.468+1004.25+308.189C993.122+307.829+981.828+307.525+970.215+307.35L956.979+307.182C937.845+306.95+918.087+306.718+898.569+305.113C890.296+304.434+882.104+303.507+873.903+302.436C865.647+301.35+857.39+300.119+849.022+298.817L825.795+295.19C813.175+293.233+800.187+291.323+787.535+289.629C774.858+287.944+762.486+286.474+751.128+285.403C739.762+284.341+729.412+283.669+718.878+283.302C708.359+282.934+697.633+282.847+685.524+282.95C673.415+283.054+659.916+283.334+645.737+283.717C631.502+284.093+616.651+284.564+601.785+285.028L601.809+285.97L601.609+286.897L605.086+287.632C606.277+287.864+607.596+288.111+609.154+288.359C610.897+288.631+612.871+288.902+615.197+289.166C617.554+289.43+620.304+289.693+623.549+289.941C626.634+290.181+630.303+290.412+634.299+290.668C645.713+291.403+659.796+292.314+672.344+294.04C689.105+296.348+703.252+300.151+718.957+304.37L719.325+304.466C727.15+306.567+735.406+308.78+743.943+311.041C752.335+313.254+760.695+315.427+768.608+317.416C775.745+319.206+782.507+320.859+789.061+322.417L806.181+326.436C802.545+326.572+798.82+326.748+794.824+327.059C788.11+327.586+780.581+328.489+771.477+330.135C764.236+331.445+756.203+333.179+747.499+335.056C733.968+337.988+718.806+341.256+703.228+343.701C690.879+345.642+678.099+347.088+665.079+348.574C651.076+350.156+636.785+351.778+622.27+354.111C608.211+356.364+594.016+359.272+580.013+362.771C566.17+366.231+552.47+370.281+539.274+374.843C525.998+379.445+513.29+384.55+501.045+389.823C488.832+395.088+476.987+400.56+465.518+405.881C442.275+416.651+421.534+426.318+400.817+435.969L399.746+436.464L400.146+437.327L400.394+438.238L400.434+438.23C404.686+437.127+408.954+436.017+413.526+434.747C416.803+433.836+420.287+432.837+424.1+431.671C427.896+430.52+431.973+429.218+436.456+427.724C441.628+425.982+447.343+423.977+453.473+421.82C465.398+417.633+478.922+412.88+493.149+408.486C503.891+405.162+515.04+402.046+526.798+399.122C538.547+396.198+550.928+393.474+564.123+390.933C570.526+389.695+577.143+388.497+583.921+387.338C590.811+386.148+597.725+385.029+604.622+383.935C611.8+382.8+619.377+381.65+627.154+380.483L644.73+377.879L611.984+395.519C604.063+399.785+594.903+404.739+584.832+410.379C574.738+416.02+563.724+422.379+552.11+429.458C540.481+436.544+528.284+444.358+515.752+452.531C503.379+460.632+490.455+469.252+477.467+477.952C464.575+486.573+451.627+495.265+438.886+504.077C426.138+512.898+413.637+521.822+401.672+530.929C389.699+540.037+378.238+549.337+367.056+559.227C355.858+569.118+344.964+579.592+334.134+591.049C323.304+602.497+312.522+614.936+301.756+627.895C290.958+640.878+280.256+654.276+269.562+667.674L270.297+668.257L270.888+668.984L270.92+668.96C287.777+654.611+304.633+640.254+326.238+623.429C337.475+614.681+350.048+605.229+362.756+596.034C374.417+587.597+386.159+579.4+397.045+572.194L398.875+570.987C409.825+563.789+419.976+557.542+429.719+551.789C438.527+546.58+446.847+541.859+455.119+537.185C443.178+558.261+431.341+579.264+421.694+598.247L419.088+603.416L415.907+609.839C408.85+624.1+402.008+637.922+391.306+654.1L389.955+656.121L388.564+658.158C380.412+670.054+370.101+683.285+359.359+697.066C349.768+709.37+339.833+722.136+330.817+734.696C321.178+748.126+312.506+761.46+304.545+775.217C296.601+788.959+289.383+803.108+282.654+818.175C275.924+833.251+269.689+849.206+264.446+863.491C259.203+877.735+254.903+890.422+252.034+898.867L246.311+915.716L247.206+916.02L247.997+916.515C253.352+908.063+258.707+899.61+264.502+890.814C270.321+881.97+276.659+872.67+284.012+862.484C291.35+852.306+299.71+841.232+308.286+830.095C316.926+818.894+325.718+807.702+333.958+797.299C342.287+786.778+350.008+777.087+357.409+767.819L376.408+744.115C373.634+754.333+370.533+764.879+364.826+778.029C362.237+783.973+359.143+790.413+355.731+797.515C350.423+808.532+344.341+821.163+338.283+835.88C333.279+848.015+328.268+861.597+323.944+876.361C319.612+891.125+315.959+907.088+313.665+924.001C309.077+957.764+309.909+995.25+310.74+1032.74L311.683+1032.72L312.602+1032.93L312.618+1032.85C317.014+1013.7+321.418+994.555+326.278+976.355C327.389+972.161+328.555+967.974+329.754+963.82C330.937+959.689+332.16+955.623+333.407+951.66C340.52+929.003+348.817+908.718+357.233+888.657C358.224+898.563+359.215+908.422+360.254+917.698C361.333+927.293+362.468+936.393+363.715+944.566C365.609+957.013+367.783+967.343+369.941+977.633C370.741+981.468+371.548+985.295+372.379+989.433C373.834+996.712+375.241+1004.35+376.448+1012.86C377.654+1021.38+378.661+1030.83+379.341+1041.73C379.741+1048.19+380.02+1055.1+380.316+1062.25C381.011+1079.5+381.771+1098.18+384.352+1114.84C386.183+1126.65+388.932+1137.42+392.305+1147.5C395.67+1157.6+399.674+1166.99+403.998+1176.06C412.646+1194.17+422.645+1211.06+432.652+1227.93L433.467+1227.46L434.37+1227.19L434.354+1227.12C431.717+1218.07+429.095+1209.01+426.202+1198.08C424.763+1192.65+423.261+1186.76+421.774+1180.33C420.279+1173.88+418.801+1166.92+417.402+1159.37C416.299+1153.43+415.236+1147.03+414.269+1140.65C413.198+1133.69+412.255+1126.78+411.471+1120.54L411.04+1116.99L410.64+1113.56C409.913+1107.08+409.441+1101.76+409.114+1097.02L408.77+1091.79C409.833+1095.23+410.936+1098.69+412.159+1102.23C414.269+1108.3+416.699+1114.47+419.792+1120.84C422.877+1127.22+426.61+1133.8+430.71+1140.53C434.778+1147.21+439.246+1154.11+443.786+1161.1L445.121+1163.17C453.745+1176.43+462.513+1189.93+468.835+1200.79C472.16+1206.5+474.797+1211.47+477.155+1216.26C479.521+1221.05+481.599+1225.66+483.773+1230.65L484.996+1233.45C489.064+1242.8+493.78+1253.61+502.124+1268.7C505.649+1275.07+509.757+1282.1+514.097+1289.48C521.123+1301.49+528.724+1314.45+535.094+1326.82C540.809+1337.9+545.516+1348.44+549.633+1357.63C552.942+1365.06+555.867+1371.6+558.616+1376.86C563.244+1385.71+567.328+1390.87+571.021+1395.53C572.236+1397.07+573.419+1398.56+574.61+1400.18C576.88+1403.29+578.998+1406.63+581.036+1410.12C582.81+1413.14+584.537+1416.29+586.255+1419.46C531.114+1418.32+475.988+1417.22+422.949+1418.82C396.653+1419.61+370.909+1421.06+347.306+1422.97C322.721+1424.97+300.413+1427.45+282.198+1430.22C264.318+1432.93+250.363+1435.9+238.902+1439.07C227.44+1442.24+218.472+1445.62+210.576+1449.12C199.202+1454.17+190.09+1459.46+181.251+1464.6C177.79+1466.6+174.377+1468.58+170.948+1470.48C164.778+1473.9+158.36+1477.17+151.837+1480.37C145.268+1483.58+138.634+1486.69+131.984+1489.8L132.383+1490.65L132.511+1491.58L145.627+1489.76L156.857+1488.26C162.02+1487.59+165.609+1487.19+168.894+1486.84C164.154+1492.54+159.431+1498.38+154.891+1505.76C152.381+1509.85+149.911+1514.42+147.777+1519.61C145.643+1524.79+143.853+1530.58+142.702+1537.1C141.463+1544.06+140.943+1551.85+141.583+1559.83C142.142+1566.81+143.573+1573.94+146.179+1580.77C151.75+1595.36+162.612+1608.52+173.49+1621.69L174.225+1621.1L175.056+1620.66C172.355+1615.57+169.645+1610.48+167.455+1605.35C165.257+1600.23+163.539+1595.03+162.779+1589.66C162.06+1584.63+162.172+1579.43+162.867+1574.33C163.675+1568.54+165.233+1562.86+167.191+1557.68C168.127+1555.22+169.134+1552.88+170.213+1550.65C171.3+1548.39+172.459+1546.21+173.649+1544.09C175.416+1540.96+177.31+1537.91+179.244+1534.88L179.196+1536.46C179.172+1538.28+179.276+1540.14+179.636+1542.05C180.211+1545.16+181.442+1548.42+183.88+1551.97C186.278+1555.47+189.843+1559.25+195.102+1563.43C198.778+1566.35+203.286+1569.49+208.609+1572.77C213.613+1575.86+219.336+1579.07+225.762+1582.38C229.247+1596.51+232.763+1610.61+239.909+1624.14C243.529+1630.98+248.069+1637.66+253.352+1643.94C258.612+1650.19+264.606+1656.06+271.152+1661.28C277.706+1666.52+284.804+1671.13+292.365+1675.26C299.918+1679.39+307.934+1683.05+316.351+1686.39C333.151+1693.06+351.47+1698.47+369.79+1703.88L369.814+1703.88L370.085+1702.99L370.525+1702.16C365.242+1699.35+359.943+1696.56+354.612+1693.5C349.296+1690.44+343.957+1687.15+338.586+1683.39C333.415+1679.76+328.196+1675.68+323.048+1671.33C317.462+1666.6+311.979+1661.55+306.759+1656.44C301.716+1651.51+296.92+1646.51+292.756+1641.62C288.608+1636.74+285.067+1631.96+282.526+1627.43L282.454+1627.29C277.786+1618.93+276.523+1611.41+275.476+1603.94C278.833+1605.19+282.238+1606.44+285.691+1607.64C289.072+1608.83+292.58+1610.04+296.225+1611.26C306.264+1614.62+316.95+1617.94+328.124+1621.18C339.042+1624.32+350.391+1627.39+362.069+1630.32C362.932+1634.21+363.843+1638.1+365.657+1642.24C367.576+1646.61+370.477+1651.22+375.384+1656.35C380.268+1661.44+387.142+1667.05+395.198+1672.58C403.159+1678.04+412.287+1683.45+421.806+1688.23C431.229+1692.97+441.028+1697.09+450.963+1700.58C461.21+1704.18+471.6+1707.1+481.863+1709.32C491.982+1711.51+502.004+1713.04+511.835+1714.13C521.642+1715.22+531.266+1715.91+540.601+1716.42C559.176+1717.46+576.656+1717.87+594.136+1718.29L594.224+1718.29L594.24+1717.34L594.48+1716.43L594.448+1716.42C583.658+1713.52+572.851+1710.61+556.562+1705.01C548.738+1702.32+539.658+1699+530.25+1695.47C519.98+1691.59+509.326+1687.44+499.471+1683.49C490.783+1680.01+482.694+1676.67+475.605+1673.48C468.531+1670.3+462.465+1667.27+457.781+1664.37L456.598+1663.62L455.487+1662.88C450.995+1659.83+448.174+1656.94+446.184+1654.12C444.569+1651.85+443.49+1649.59+442.531+1647.36C448.118+1648.33+453.817+1649.28+459.643+1650.19C465.406+1651.1+471.129+1651.95+476.772+1652.75C504.122+1656.61+531.585+1659.37+558.225+1661.34C584.745+1663.3+610.505+1664.46+634.563+1665.13C640.725+1668.33+646.888+1671.53+653.505+1674.7C660.139+1677.88+667.149+1681+674.862+1683.98C682.815+1687.05+691.527+1689.97+700.766+1692.62C709.518+1695.12+718.758+1697.36+728.301+1699.24C738.108+1701.17+748.227+1702.72+758.649+1703.92C769.048+1705.13+779.766+1706.01+790.772+1706.64C801.73+1707.26+813.007+1707.63+824.445+1707.86C835.794+1708.1+847.312+1708.2+858.813+1708.31L858.973+1708.32L858.973+1707.37L859.269+1706.48L859.109+1706.42L859.005+1706.42L847.232+1704.87C841.349+1704.1+832.533+1702.94+822.391+1701.44C812.368+1699.96+801.21+1698.16+790.78+1696.13C782.195+1694.48+774.115+1692.66+766.586+1690.72C758.953+1688.75+751.839+1686.64+745.341+1684.44L741.377+1683.05L737.548+1681.62C724.632+1676.67+714.745+1671.29+705.17+1665.88C735.614+1665.72+762.406+1664.94+788.174+1664.2L815.733+1663.42C850.373+1662.47+882.911+1661.59+907.161+1659.61C935.223+1657.31+952.319+1653.56+969.408+1649.81L969.216+1648.88L969.232+1647.94C935.711+1647.21+902.197+1646.49+867.565+1645.19C832.989+1643.91+797.294+1642.06+759.376+1639.1C721.219+1636.12+680.848+1631.99+641.045+1627.04C601.849+1622.17+563.204+1616.49+527.805+1610.3C493.141+1604.24+461.585+1597.69+434.29+1591.11C405.365+1584.13+381.195+1577.12+363.14+1570.6C353.644+1567.18+345.828+1563.89+339.322+1560.71C332.84+1557.54+327.7+1554.51+323.528+1551.6C320.027+1549.16+317.19+1546.79+314.808+1544.5C312.434+1542.2+310.508+1539.99+308.822+1537.83C305.145+1533.13+302.587+1528.74+301.221+1524.81C299.886+1520.98+299.686+1517.6+300.653+1514.8C301.604+1512.02+303.754+1509.75+307.703+1507.74C311.819+1505.64+317.829+1503.85+326.373+1502.1C335.373+1500.26+347.162+1498.46+360.878+1496.98C373.418+1495.6+387.533+1494.49+402.6+1493.8C418.409+1493.07+435.25+1492.81+454.184+1493.07C473.111+1493.32+494.18+1494.11+518.429+1495.47C537.412+1496.52+558.425+1497.93+581.316+1499.48C595.287+1500.43+609.953+1501.42+625.339+1502.4L616.795+1503.91C612.079+1504.75+607.276+1505.63+602.32+1506.56L599.163+1507.15C589.94+1508.91+580.604+1510.67+570.47+1511.6L568+1511.81C557.394+1512.64+545.924+1512.64+534.447+1512.64L534.447+1513.59L534.159+1514.49L534.199+1514.5C545.461+1518.14+556.722+1521.79+567.896+1524.43C573.499+1525.77+579.11+1526.86+585.112+1527.75C591.099+1528.65+597.469+1529.36+604.614+1529.92C611.728+1530.5+619.656+1530.94+628.177+1531.06C636.665+1531.19+645.721+1531+655.064+1530.34C664+1529.68+673.231+1528.59+682.287+1527.2C692.214+1525.67+701.965+1523.8+710.933+1521.76C719.445+1519.82+727.27+1517.74+734.735+1515.59C742.28+1513.41+749.282+1511.22+756.275+1509.04L756.515+1509.05C786.663+1510.09+817.715+1510.81+848.335+1511.07C876.093+1511.29+903.492+1511.12+929.508+1510.46C923.106+1513.07+916.672+1515.67+910.078+1518.27C902.517+1521.24+894.7+1524.22+886.42+1527.2C879.554+1529.68+872.321+1532.18+864.8+1534.61C857.287+1537.04+849.502+1539.4+841.501+1541.62L834.915+1543.39L828.241+1545.09C817.827+1547.66+807.165+1549.91+797.733+1551.74C788.294+1553.58+780.109+1555.01+774.666+1555.94L766.722+1557.27C765.291+1557.5+764.564+1557.59+764.204+1557.63L764.028+1557.61L764.02+1557.65C763.868+1557.69+763.876+1557.84+763.972+1557.99L763.892+1558.52L762.949+1558.52C762.949+1559.04+762.949+1559.56+764.132+1559.52C781.508+1562.06+798.876+1564.6+815.237+1566.63C831.646+1568.67+847.12+1570.21+860.683+1570.76C874.303+1571.31+885.972+1570.86+896.666+1569.53C907.377+1568.2+917.136+1566.01+926.919+1563.07C936.526+1560.19+946.173+1556.62+955.628+1552.46C965.371+1548.19+974.907+1543.33+983.978+1538.06C992.834+1532.9+1001.28+1527.33+1009.52+1521.57C1017.86+1515.74+1025.81+1509.81+1033.75+1503.9L1033.91+1503.78C1046.61+1502.3+1058.71+1500.55+1070.16+1498.49L1069.69+1499.17C1066.57+1503.78+1063.43+1508.39+1060.21+1512.98C1057.03+1517.52+1053.73+1522.1+1050.24+1526.73C1047.59+1530.23+1044.87+1533.7+1042.08+1537.03C1039.27+1540.37+1036.35+1543.6+1033.3+1546.62C1031.99+1547.92+1030.63+1549.19+1029.24+1550.44C1027.85+1551.68+1026.45+1552.85+1025.04+1553.95C1020.36+1557.61+1015.39+1560.61+1010.92+1563.01C1006.45+1565.43+1002.48+1567.21+999.852+1568.4L993.993+1571.04L993.993+1571.65L994.936+1571.65L994.936+1572.59L995.879+1572.59L995.879+1572.26L997.854+1571.37C1008.1+1569.94+1018.35+1568.52+1028.38+1566.87C1038.46+1565.22+1048.27+1563.34+1057.55+1561.01C1061.83+1559.93+1066.03+1558.76+1070.12+1557.45C1074.19+1556.15+1078.13+1554.73+1081.89+1553.19C1093.81+1548.26+1104.14+1541.92+1113.21+1534.74C1122.28+1527.57+1130.1+1519.58+1137.05+1511.34C1143.86+1503.26+1149.83+1494.95+1155.37+1486.52C1160.93+1478.07+1166.04+1469.55+1171.12+1461.01L1171.61+1460.21C1178.76+1455.03+1185.25+1449.43+1191.19+1443.41C1197.17+1437.34+1202.59+1430.86+1207.53+1423.95C1208.51+1422.59+1209.47+1421.21+1210.4+1419.82L1211.83+1421.8C1215.38+1426.77+1218.9+1431.73+1222.21+1436.57C1225.5+1441.4+1228.55+1446.1+1231.16+1450.53C1234.05+1455.43+1236.42+1460.06+1238.31+1464.48C1240.18+1468.89+1241.57+1473.1+1242.5+1477.19C1244.19+1484.69+1244.34+1491.86+1244.43+1496.2L1244.45+1497.41C1244.49+1499.01+1244.55+1500.06+1244.6+1500.75C1244.67+1501.53+1244.76+1501.98+1244.85+1502.27L1245.06+1502.79L1245.91+1502.39L1246.75+1502.81C1254.46+1486.98+1262.17+1471.16+1267.61+1455.47C1270.33+1447.62+1272.47+1439.81+1273.77+1432.2C1275.07+1424.56+1275.52+1417.1+1274.82+1409.93C1274.14+1402.77+1272.32+1395.93+1269.83+1389.3C1267.33+1382.71+1264.16+1376.32+1260.76+1370.03L1257.76+1364.65L1254.67+1359.3C1252.28+1355.26+1249.76+1351.16+1247.18+1347.05C1244.5+1342.77+1241.97+1338.81+1239.46+1334.9L1238.6+1333.56C1238.72+1328.3+1238.56+1322.99+1238.11+1317.63C1236.43+1297.87+1230.73+1277.53+1221.14+1256.3C1213.14+1238.57+1202.42+1220.22+1189.09+1201.03C1195.05+1201.57+1201+1202.13+1206.8+1202.81C1212.72+1203.5+1218.38+1204.31+1223.53+1205.34C1228.86+1206.41+1233.64+1207.72+1238.01+1209.21C1242.37+1210.7+1246.35+1212.37+1250.06+1214.18C1253.78+1215.99+1257.24+1217.93+1260.57+1219.92C1263.88+1221.91+1267.12+1224+1270.36+1226.08L1270.86+1225.29L1271.57+1224.67L1271.56+1224.65L1271.47+1224.57Z" fill-rule="evenodd" fill="#000000" opacity="1"/>
</g>
</svg>
